<?xml version="1.0" encoding="utf-8"?><svg viewBox="0 0 24 24" xmlns="http://www.w3.org/2000/svg" xmlns:xlink="http://www.w3.org/1999/xlink"><style>:root>svg{display:none}:root>svg:target{display:block}</style><svg viewBox="0 0 18 12" id="arr-left" xmlns="http://www.w3.org/2000/svg"><path fill-rule="evenodd" clip-rule="evenodd" d="M6.207 11.207a1 1 0 01-1.414 0l-4.5-4.5a1 1 0 010-1.414l4.5-4.5a1 1 0 011.414 1.414L3.414 5H17a1 1 0 110 2H3.414l2.793 2.793a1 1 0 010 1.414z"/></svg><svg viewBox="0 0 18 12" id="arr-right" xmlns="http://www.w3.org/2000/svg"><path fill-rule="evenodd" clip-rule="evenodd" d="M11.793.793a1 1 0 011.414 0l4.5 4.5a1 1 0 010 1.414l-4.5 4.5a1 1 0 01-1.414-1.414L14.586 7H1a1 1 0 010-2h13.586l-2.793-2.793a1 1 0 010-1.414z"/></svg><svg viewBox="0 0 24 24" id="facebook" xmlns="http://www.w3.org/2000/svg"><path d="M17.563 1.005L14.786 1c-3.12 0-5.137 2.125-5.137 5.414v2.497H6.857c-.242 0-.437.2-.437.448v3.617c0 .248.196.449.437.449h2.792v9.126c0 .248.195.449.437.449h3.643a.443.443 0 00.437-.449v-9.126h3.265c.241 0 .436-.2.436-.449l.002-3.617a.456.456 0 00-.128-.317.431.431 0 00-.31-.131h-3.265V6.794c0-1.017.236-1.533 1.525-1.533h1.871a.444.444 0 00.437-.45V1.454a.443.443 0 00-.436-.448z"/></svg><svg viewBox="0 0 20 20" id="fb" xmlns="http://www.w3.org/2000/svg"><path d="M14.636.838L12.322.834c-2.6 0-4.281 1.77-4.281 4.512v2.08H5.714a.369.369 0 00-.364.374v3.014c0 .207.163.374.364.374h2.327v7.606c0 .206.163.373.364.373h3.036a.369.369 0 00.364-.373v-7.606h2.72a.369.369 0 00.365-.374V7.8a.38.38 0 00-.106-.264.36.36 0 00-.257-.11h-2.722V5.663c0-.848.197-1.278 1.271-1.278h1.56a.37.37 0 00.363-.375V1.212a.37.37 0 00-.363-.374z" opacity=".6"/></svg><svg viewBox="0 0 20 20" id="in" xmlns="http://www.w3.org/2000/svg"><path d="M18.329 18.333l.004-.001v-6.113c0-2.99-.644-5.293-4.14-5.293-1.68 0-2.808.922-3.268 1.796h-.049V7.205H7.562v11.127h3.451v-5.51c0-1.45.275-2.853 2.072-2.853 1.77 0 1.796 1.655 1.796 2.946v5.418h3.448zM1.942 7.206h3.455v11.127H1.941V7.206zm1.726-5.54a2.002 2.002 0 00-2.002 2.001c0 1.105.897 2.02 2.002 2.02 1.105 0 2.001-.915 2.001-2.02a2.003 2.003 0 00-2.001-2.001z"/></svg><svg viewBox="0 0 20 20" id="inst" xmlns="http://www.w3.org/2000/svg"><g opacity=".6"><path d="M18.317 6.566c-.04-.885-.182-1.494-.387-2.022a4.068 4.068 0 00-.964-1.478 4.102 4.102 0 00-1.475-.96c-.53-.206-1.136-.349-2.022-.388-.892-.042-1.175-.052-3.438-.052s-2.546.01-3.435.049c-.886.039-1.495.182-2.022.387a4.066 4.066 0 00-1.478.964 4.103 4.103 0 00-.96 1.475c-.206.53-.349 1.136-.388 2.022-.042.892-.052 1.175-.052 3.438s.01 2.546.049 3.435c.039.886.182 1.494.387 2.022.212.56.54 1.061.964 1.478.417.423.921.752 1.475.96.53.206 1.136.349 2.022.388.888.039 1.172.049 3.435.049 2.262 0 2.546-.01 3.434-.05.886-.038 1.495-.181 2.022-.387a4.263 4.263 0 002.439-2.438c.205-.53.348-1.136.387-2.022.04-.889.05-1.172.05-3.435s-.004-2.546-.043-3.435zm-1.501 6.805c-.036.814-.173 1.253-.287 1.546a2.765 2.765 0 01-1.582 1.583c-.293.114-.736.25-1.546.286-.88.04-1.143.049-3.367.049s-2.49-.01-3.367-.049c-.814-.036-1.253-.172-1.546-.286a2.566 2.566 0 01-.957-.622 2.592 2.592 0 01-.622-.957c-.114-.293-.25-.736-.287-1.547-.039-.879-.048-1.143-.048-3.367 0-2.223.01-2.49.048-3.366.036-.814.173-1.254.287-1.547.133-.361.345-.69.625-.957.27-.277.596-.488.957-.622.293-.114.736-.25 1.547-.286.879-.04 1.143-.049 3.366-.049 2.227 0 2.491.01 3.367.049.814.036 1.253.172 1.546.286.362.134.69.345.958.622.276.27.488.596.621.957.114.293.251.736.287 1.547.039.88.049 1.143.049 3.367 0 2.223-.01 2.484-.049 3.363z"/><path d="M10.03 5.72a4.283 4.283 0 000 8.562 4.282 4.282 0 000-8.562zm0 7.058a2.778 2.778 0 11.002-5.555 2.778 2.778 0 01-.001 5.555zm5.451-7.228a1 1 0 11-2 0 1 1 0 012 0z"/></g></svg><svg viewBox="0 0 24 24" id="instagram" xmlns="http://www.w3.org/2000/svg"><path d="M21.98 7.88c-.046-1.063-.218-1.793-.464-2.426a4.88 4.88 0 00-1.157-1.774 4.922 4.922 0 00-1.77-1.153c-.637-.246-1.363-.418-2.426-.464-1.07-.051-1.41-.063-4.126-.063-2.715 0-3.055.012-4.122.059-1.062.046-1.793.218-2.426.464A4.88 4.88 0 003.715 3.68a4.924 4.924 0 00-1.152 1.77c-.247.637-.418 1.363-.465 2.426-.051 1.07-.063 1.41-.063 4.126 0 2.715.012 3.055.059 4.122.047 1.063.219 1.793.465 2.426a4.932 4.932 0 001.156 1.774 4.92 4.92 0 001.77 1.152c.637.247 1.364.419 2.426.465 1.067.047 1.407.059 4.122.059 2.716 0 3.056-.012 4.122-.059 1.063-.046 1.793-.218 2.426-.464a5.116 5.116 0 002.927-2.927c.246-.637.418-1.364.465-2.426.047-1.067.058-1.407.058-4.122s-.004-3.055-.05-4.122zm-1.8 8.166c-.044.977-.208 1.504-.345 1.855a3.317 3.317 0 01-1.898 1.9c-.352.136-.883.3-1.856.343-1.055.047-1.371.059-4.04.059-2.668 0-2.989-.012-4.04-.059-.977-.043-1.504-.207-1.856-.344a3.077 3.077 0 01-1.148-.746 3.11 3.11 0 01-.747-1.148c-.136-.352-.3-.883-.343-1.856-.047-1.055-.059-1.372-.059-4.04 0-2.669.012-2.99.059-4.04.043-.977.207-1.504.343-1.856A3.04 3.04 0 015 4.965a3.105 3.105 0 011.15-.746c.35-.137.882-.3 1.855-.344 1.055-.046 1.372-.058 4.04-.058 2.672 0 2.989.012 4.04.058.977.043 1.504.207 1.856.344.433.16.828.414 1.148.746.332.325.586.715.747 1.15.136.35.3.882.343 1.855.047 1.055.059 1.371.059 4.04 0 2.668-.012 2.98-.059 4.036z"/><path d="M12.037 6.864A5.139 5.139 0 006.9 12.002a5.139 5.139 0 105.138-5.138zm0 8.47a3.333 3.333 0 11.001-6.666 3.333 3.333 0 010 6.667zm6.541-8.673a1.2 1.2 0 11-2.4 0 1.2 1.2 0 012.4 0z"/></svg><svg viewBox="0 0 24 24" id="linked" xmlns="http://www.w3.org/2000/svg"><path d="M21.995 22H22v-7.336c0-3.588-.773-6.352-4.968-6.352-2.016 0-3.37 1.106-3.922 2.155h-.058v-1.82H9.074v13.352h4.142v-6.611c0-1.741.33-3.425 2.486-3.425 2.124 0 2.156 1.987 2.156 3.536V22h4.137zM2.33 8.648h4.147V22H2.33V8.648zM4.402 2A2.402 2.402 0 002 4.402c0 1.325 1.076 2.424 2.402 2.424 1.325 0 2.401-1.098 2.401-2.424A2.403 2.403 0 004.402 2z"/></svg><svg viewBox="0 0 11 14" id="play" xmlns="http://www.w3.org/2000/svg"><path d="M10.5 6.134a1 1 0 010 1.732l-9 5.196a1 1 0 01-1.5-.866V1.804A1 1 0 011.5.938l9 5.196z"/></svg><svg viewBox="0 0 24 24" id="telegram" xmlns="http://www.w3.org/2000/svg"><path d="M9.633 15.181l-.364 5.584c.52 0 .746-.244 1.016-.537l2.441-2.545 5.059 4.041c.927.564 1.581.267 1.831-.93l3.32-16.973h.001c.295-1.497-.495-2.082-1.4-1.715L2.022 10.257c-1.332.564-1.311 1.374-.226 1.741l4.99 1.693 11.59-7.91c.545-.395 1.04-.177.633.217l-9.375 9.183z"/></svg><svg viewBox="0 0 24 24" id="twitter" xmlns="http://www.w3.org/2000/svg"><path d="M22.5 5.772a8.902 8.902 0 01-2.474.65 4.18 4.18 0 001.894-2.28 8.922 8.922 0 01-2.737 1 4.387 4.387 0 00-3.145-1.302c-2.379 0-4.308 1.847-4.308 4.124 0 .323.038.638.112.94-3.58-.173-6.754-1.815-8.879-4.31a3.962 3.962 0 00-.583 2.073c0 1.431.762 2.694 1.916 3.433a4.455 4.455 0 01-1.95-.518v.052c0 1.997 1.485 3.665 3.454 4.044-.36.093-.741.145-1.135.145a4.31 4.31 0 01-.81-.077c.548 1.64 2.138 2.832 4.023 2.865a8.89 8.89 0 01-5.35 1.763c-.348 0-.69-.02-1.028-.057a12.572 12.572 0 006.603 1.856c7.925 0 12.257-6.285 12.257-11.736l-.015-.534a8.412 8.412 0 002.155-2.13z"/></svg><svg viewBox="0 0 24 24" id="youtube" xmlns="http://www.w3.org/2000/svg"><path fill-rule="evenodd" clip-rule="evenodd" d="M21.39 4.114a3.007 3.007 0 012.116 2.115c.514 1.878.494 5.792.494 5.792s0 3.895-.494 5.773a3.007 3.007 0 01-2.116 2.115c-1.878.495-9.39.495-9.39.495s-7.493 0-9.39-.514a3.007 3.007 0 01-2.116-2.116C0 15.916 0 12.001 0 12.001S0 8.107.494 6.23A3.068 3.068 0 012.61 4.094C4.488 3.6 12 3.6 12 3.6s7.513 0 9.391.514zm-5.535 7.888L9.608 15.6V8.404l6.247 3.598z"/></svg></svg>